<?xml version="1.0" encoding="UTF-8" standalone="no"?>
<!-- Created with Inkscape (http://www.inkscape.org/) -->

<svg
   width="64.573341mm"
   height="60.852318mm"
   viewBox="0 0 64.573341 60.852318"
   version="1.1"
   id="svg5"
   xml:space="preserve"
   xmlns="http://www.w3.org/2000/svg"
   xmlns:svg="http://www.w3.org/2000/svg"><defs
     id="defs2" /><g
     id="layer1"
     transform="translate(-76.088385,-94.227243)"><path
       style="opacity:1;fill:#29891a;fill-opacity:1;stroke:none;stroke-width:0.3;stroke-dasharray:none"
       d="m 98.954165,156.89791 c -0.96651,-0.24459 1.923605,-14.96342 6.451155,-32.85455 4.52755,-17.89112 8.9865,-32.212952 9.95301,-31.968366 0.96651,0.244587 -1.92361,14.963426 -6.45116,32.854546 -4.52755,17.89113 -8.986495,32.21296 -9.953005,31.96837 z"
       id="path3034"
       class="UnoptimicedTransforms"
       transform="rotate(29.813251,109.90659,129.18074)" /><path
       style="opacity:1;fill:#29891a;fill-opacity:1;stroke:none;stroke-width:0.3;stroke-dasharray:none"
       d="m 113.77083,109.5375 c -0.33705,-0.60083 1.81933,-2.4516 4.81336,-4.13118 2.99403,-1.67957 5.69751,-2.55508 6.03457,-1.95424 0.33705,0.60083 -1.81934,2.4516 -4.81337,4.13117 -2.99402,1.67958 -5.69751,2.55508 -6.03456,1.95425 z"
       id="path3470"
       class="UnoptimicedTransforms"
       transform="matrix(1.1773351,0.33539137,-0.07773668,0.27288156,-1.9616249,46.325835)" /><path
       style="opacity:1;fill:#29891a;fill-opacity:1;stroke:none;stroke-width:0.3;stroke-dasharray:none"
       d="m 111.91875,117.21042 c -0.0633,-0.2682 3.95982,-1.37316 8.76771,-3.0967 4.8079,-1.72354 8.56663,-3.49725 8.6948,-3.2533 0.12817,0.24394 -3.48502,2.44535 -8.35779,4.19314 -4.87276,1.74779 -9.04142,2.42506 -9.10472,2.15686 z"
       id="path3474"
       class="UnoptimicedTransforms"
       transform="rotate(29.813251,109.90659,129.18074)" /><path
       style="opacity:1;fill:#29891a;fill-opacity:1;stroke:none;stroke-width:0.3;stroke-dasharray:none"
       d="m 109.5375,127.26458 c -0.0734,-0.26562 4.40137,-1.59405 9.67772,-3.6917 5.27635,-2.09765 9.22011,-4.47554 9.37228,-4.2458 0.15217,0.22974 -3.6479,3.04001 -9.00305,5.17354 -5.35515,2.13353 -9.97358,3.02958 -10.04695,2.76396 z"
       id="path3478"
       class="UnoptimicedTransforms"
       transform="rotate(29.813251,109.90659,129.18074)" /><path
       style="opacity:1;fill:#29891a;fill-opacity:1;stroke:none;stroke-width:0.3;stroke-dasharray:none"
       d="m 106.3625,136.78958 c -0.0684,-0.26694 4.45128,-1.50498 9.80441,-3.4364 5.35312,-1.93143 9.36362,-4.20529 9.51017,-3.97193 0.14656,0.23336 -3.73985,2.94531 -9.17113,4.91032 -5.43128,1.965 -10.07505,2.76495 -10.14345,2.49801 z"
       id="path3482"
       class="UnoptimicedTransforms"
       transform="rotate(29.813251,109.90659,129.18074)" /><path
       style="opacity:1;fill:#29891a;fill-opacity:1;stroke:none;stroke-width:0.3;stroke-dasharray:none"
       d="m 105.56875,143.13958 c -0.056,-0.26981 3.64488,-1.11192 8.04958,-2.35364 4.4047,-1.24172 7.68509,-2.9106 7.82542,-2.67344 0.14033,0.23716 -3.0646,2.35986 -7.55361,3.63423 -4.489,1.27436 -8.26537,1.66266 -8.32139,1.39285 z"
       id="path3486"
       class="UnoptimicedTransforms"
       transform="rotate(29.813251,109.90659,129.18074)" /><path
       style="opacity:1;fill:#29891a;fill-opacity:1;stroke:none;stroke-width:0.3;stroke-dasharray:none"
       d="m 101.86458,155.31041 c -0.16125,-0.30198 2.26653,-1.86161 6.20323,-4.66404 3.77996,-2.69085 9.52449,-6.9966 14.35277,-12.8418 0,0 0,0 0,0 2.59331,-3.14569 5.03272,-6.89814 6.62609,-11.08406 0.71374,-1.87506 1.2293,-3.76275 1.53459,-5.65423 0.96923,-5.81636 -0.12993,-11.38206 -1.97189,-15.75015 -3.98987,-9.49619 -10.1485,-13.881992 -9.81145,-14.299466 0.33704,-0.417474 7.27011,3.18918 12.16586,13.228576 2.26591,4.66257 3.6672,10.80983 2.67987,17.30754 -0.33101,2.11386 -0.89289,4.21208 -1.67388,6.27675 -1.74712,4.61879 -4.42134,8.6292 -7.29488,11.89666 0,0 -1e-5,0 -1e-5,0 -5.33874,6.08061 -11.45872,10.12865 -15.62192,12.47335 -4.29712,2.42013 -7.02713,3.41285 -7.18838,3.11087 z"
       id="path4312"
       class="UnoptimicedTransforms"
       transform="rotate(29.813251,109.90659,129.18074)" /><path
       style="opacity:1;fill:#29891a;fill-opacity:1;stroke:none;stroke-width:0.3;stroke-dasharray:none"
       d="m 96.043749,152.92916 c 0.539954,-0.30497 -3.738126,-7.6385 -5.989501,-19.29179 -0.974646,-5.07136 -1.503936,-11.07594 -0.457159,-17.12198 0.04304,-0.24861 0.08855,-0.49615 0.136533,-0.74262 1.160618,-5.98707 3.798729,-11.03779 7.123824,-14.75746 3.690714,-4.171495 8.216904,-6.722722 11.192294,-8.214482 3.09702,-1.552742 5.00901,-2.282571 4.92734,-2.577912 -0.16334,-0.590683 -9.41779,-0.07754 -18.194167,8.852707 -3.861085,3.965907 -6.944209,9.487837 -8.220285,16.083047 -0.05187,0.26916 -0.100906,0.53932 -0.147102,0.81044 -1.127248,6.61573 -0.432042,12.99442 0.844656,18.27579 2.914667,12.10559 8.243613,18.98923 8.783567,18.68426 z"
       id="path4316"
       class="UnoptimicedTransforms"
       transform="rotate(29.813251,109.90659,129.18074)" /><path
       style="opacity:1;fill:#29891a;fill-opacity:1;stroke:none;stroke-width:0.3;stroke-dasharray:none"
       d="m 108.21458,105.56875 c -0.1985,0.19114 -1.90053,-1.25393 -3.79917,-3.2256 -1.89865,-1.97168 -3.27849,-3.727008 -3.07999,-3.918152 0.19849,-0.191144 1.90053,1.253925 3.79917,3.225602 1.89865,1.97167 3.27849,3.72701 3.07999,3.91815 z"
       id="path4320"
       class="UnoptimicedTransforms"
       transform="rotate(29.813251,109.90659,129.18074)" /><path
       style="opacity:1;fill:#29891a;fill-opacity:1;stroke:none;stroke-width:0.3;stroke-dasharray:none"
       d="m 105.30417,115.62292 c -0.13114,0.24236 -3.13427,-1.14588 -6.034019,-3.90371 -2.899753,-2.75783 -4.757009,-5.44018 -4.549325,-5.6213 0.207683,-0.18112 2.414346,2.2026 5.237553,4.89919 2.823211,2.69658 5.476931,4.38346 5.345791,4.62582 z"
       id="path4324"
       class="UnoptimicedTransforms"
       transform="rotate(29.813251,109.90659,129.18074)" /><path
       style="opacity:1;fill:#29891a;fill-opacity:1;stroke:none;stroke-width:0.3;stroke-dasharray:none"
       d="m 104.24583,123.825 c -0.13331,0.25211 -3.44826,-1.1771 -6.890962,-4.04481 -3.442736,-2.86775 -5.479105,-5.84372 -5.279874,-6.00937 0.211896,-0.17617 2.59183,2.46922 5.918934,5.24242 3.327102,2.7732 6.380712,4.56815 6.251902,4.81176 z"
       id="path4328"
       class="UnoptimicedTransforms"
       transform="rotate(29.813251,109.90659,129.18074)" /><path
       style="opacity:1;fill:#29891a;fill-opacity:1;stroke:none;stroke-width:0.3;stroke-dasharray:none"
       d="m 101.86458,129.38125 c -0.11373,0.251 -3.039692,-0.8128 -6.051726,-3.0917 -3.012034,-2.2789 -4.988089,-4.64804 -4.796195,-4.84581 0.191895,-0.19777 2.465421,1.82407 5.399289,4.04974 2.933867,2.22567 5.562362,3.63677 5.448632,3.88777 z"
       id="path4332"
       class="UnoptimicedTransforms"
       transform="rotate(29.813251,109.90659,129.18074)" /><path
       style="opacity:1;fill:#29891a;fill-opacity:1;stroke:none;stroke-width:0.3;stroke-dasharray:none"
       d="m 100.27708,138.37708 c -0.16134,0.2234 -2.425885,-1.13623 -5.054786,-3.03488 -2.628901,-1.89865 -4.631558,-3.62089 -4.470216,-3.84428 0.161341,-0.2234 2.425885,1.13623 5.054786,3.03488 2.6289,1.89865 4.631556,3.62088 4.470216,3.84428 z"
       id="path4336"
       class="UnoptimicedTransforms"
       transform="rotate(29.813251,109.90659,129.18074)" /><path
       style="opacity:1;fill:#783916;fill-opacity:1;stroke:none;stroke-width:0.3;stroke-dasharray:none"
       d="m 98.424999,157.95625 c -0.538704,-0.1309 -1.841449,2.06777 -3.287958,4.67796 -1.52975,2.7604 -2.441866,5.28333 -1.73913,5.6408 0.609171,0.30987 2.352843,-1.58079 3.913576,-4.44642 1.604657,-2.94628 1.874301,-5.68748 1.113512,-5.87234 z"
       id="path4340"
       class="UnoptimicedTransforms"
       transform="rotate(29.813251,109.90659,129.18074)" /></g></svg>
